<?xml version="1.0" encoding="UTF-8" standalone="no"?>
<svg width="100px" height="92px" viewBox="0 0 100 92" version="1.1" xmlns="http://www.w3.org/2000/svg" xmlns:xlink="http://www.w3.org/1999/xlink" xmlns:sketch="http://www.bohemiancoding.com/sketch/ns">
    <!-- Generator: Sketch 3.3.3 (12081) - http://www.bohemiancoding.com/sketch -->
    <title>Shape</title>
    <desc>Created with Sketch.</desc>
    <defs></defs>
    <g id="Page-1" stroke="none" stroke-width="1" fill="none" fill-rule="evenodd" sketch:type="MSPage">
        <g id="375-retina-display-ready-icons" sketch:type="MSLayerGroup" transform="translate(0.000000, -1166.000000)" fill="#FFFFFF">
            <path d="M6.821,1201.33 L11.982,1174.676 C12.61,1171.784 16.119,1166.207 23.348,1166 L50.002,1166 L76.651,1166 C83.673,1166.207 87.187,1171.784 87.809,1174.676 L93.178,1201.33 C96.485,1201.947 99.998,1205.254 99.998,1208.768 L99.998,1230.877 C99.998,1234.178 97.102,1236.862 95.655,1237.894 L95.655,1254.013 C93.593,1256.075 91.317,1257.522 88.425,1257.522 C85.533,1257.522 82.44,1256.076 80.579,1254.013 L80.579,1238.522 L66.735,1239.553 L50.003,1239.553 L33.268,1239.553 L19.426,1238.522 L19.426,1254.013 C17.565,1256.075 14.466,1257.522 11.573,1257.522 C8.681,1257.522 6.412,1256.076 4.136,1254.013 L4.136,1237.894 C2.893,1236.863 0,1234.178 0,1230.877 L0,1208.768 C0,1205.254 3.52,1201.948 6.821,1201.33 L6.821,1201.33 Z M87.188,1206.083 L87.188,1206.083 C90.955,1206.083 94.009,1209.222 94.009,1213.105 C94.009,1216.978 90.954,1220.127 87.188,1220.127 C83.427,1220.127 80.368,1216.978 80.368,1213.105 C80.368,1209.222 83.428,1206.083 87.188,1206.083 L87.188,1206.083 Z M12.397,1206.083 L12.397,1206.083 C16.163,1206.083 19.217,1209.222 19.217,1213.105 C19.217,1216.978 16.162,1220.127 12.397,1220.127 C8.63,1220.127 5.582,1216.978 5.582,1213.105 C5.582,1209.222 8.631,1206.083 12.397,1206.083 L12.397,1206.083 Z M13.642,1190.996 L15.088,1182.942 C16.948,1174.675 25.826,1173.437 34.916,1173.437 L50.003,1173.437 L65.085,1173.437 C74.175,1173.437 83.058,1174.675 84.711,1182.942 L86.157,1190.996 C86.981,1195.748 84.297,1197.407 79.135,1197.194 L50.003,1195.961 L20.871,1197.194 C15.704,1197.407 13.02,1195.748 13.642,1190.996 L13.642,1190.996 Z M24.38,1213.728 L24.38,1216.621 L50.003,1216.621 L75.413,1216.621 L75.413,1213.728 L59.509,1212.697 L50.003,1212.697 L40.498,1212.697 L24.38,1213.728 L24.38,1213.728 Z M50.003,1220.75 L75.621,1220.75 L75.621,1224.679 L50.003,1224.679 L49.796,1224.679 L24.38,1224.679 L24.38,1220.75 L49.796,1220.75 L50.003,1220.75 L50.003,1220.75 Z M24.38,1231.696 L24.38,1228.603 L50.003,1228.603 L75.413,1228.603 L75.413,1231.696 L59.509,1232.525 L50.003,1232.525 L40.498,1232.525 L24.38,1231.696 L24.38,1231.696 Z" id="Shape" sketch:type="MSShapeGroup"></path>
        </g>
    </g>
</svg>