<?xml version="1.0" encoding="utf-8"?>
<!-- Generator: Adobe Illustrator 17.0.0, SVG Export Plug-In . SVG Version: 6.00 Build 0)  -->
<!DOCTYPE svg PUBLIC "-//W3C//DTD SVG 1.1//EN" "http://www.w3.org/Graphics/SVG/1.1/DTD/svg11.dtd">
<svg version="1.1" id="Layer_1" xmlns="http://www.w3.org/2000/svg" xmlns:xlink="http://www.w3.org/1999/xlink" x="0px" y="0px"
	 width="60px" height="60px" viewBox="0 0 60 60" enable-background="new 0 0 60 60" xml:space="preserve">
<path fill="#FFFFFF" d="M30.001,60C13.425,60,0,57.451,0,54.317c0-6.116,8.342-10.937,19.007-12.823
	c0.928-0.166,1.781-0.603,2.514-1.227c1.116-0.951,1.781-2.305,1.844-3.745c0.061-1.442-0.488-2.844-1.518-3.883
	c-4.365-4.403-6.846-11.718-6.846-16.791C15.001,5.213,21.717,0,30.001,0c8.284,0,15.001,5.213,15.001,15.847
	c0,5.073-2.482,12.389-6.848,16.791c-1.028,1.038-1.574,2.439-1.515,3.878c0.061,1.439,0.722,2.795,1.835,3.745
	c0.733,0.627,1.587,1.067,2.518,1.233C51.659,43.38,60,48.201,60,54.317C60,57.451,46.575,60,30.001,60z"/>
</svg>
