<?xml version="1.0" encoding="utf-8"?>
<!-- Generator: Adobe Illustrator 17.0.0, SVG Export Plug-In . SVG Version: 6.00 Build 0)  -->
<!DOCTYPE svg PUBLIC "-//W3C//DTD SVG 1.1//EN" "http://www.w3.org/Graphics/SVG/1.1/DTD/svg11.dtd">
<svg version="1.1" id="Layer_1" xmlns="http://www.w3.org/2000/svg" xmlns:xlink="http://www.w3.org/1999/xlink" x="0px" y="0px"
	 width="60px" height="60px" viewBox="0 3 60 60" enable-background="new 0 3 60 60" xml:space="preserve">
<g>
	<path fill="#FFFFFF" d="M58.878,27.164L33.068,3.983c-1.45-1.265-3.77-1.332-5.22-0.067L1.168,27.164
		c-1.087,0.999-1.45,2.465-0.943,3.797c0.58,1.332,1.957,2.198,3.48,2.198h4.35V58.47c0,2.531,2.247,4.53,4.93,4.53h9.062V41.951
		c0-2.531,2.247-4.53,4.93-4.53h5.364c2.755,0,4.93,2.065,4.93,4.53v20.982h9.643c2.755,0,4.93-2.065,4.93-4.53V33.093h4.35
		c1.523,0,2.9-0.866,3.48-2.131C60.328,29.629,59.965,28.163,58.878,27.164z"/>
</g>
</svg>
