<?xml version="1.0" encoding="UTF-8" standalone="no"?>
<svg width="29px" height="28px" viewBox="0 0 29 28" version="1.1" xmlns="http://www.w3.org/2000/svg" xmlns:xlink="http://www.w3.org/1999/xlink" xmlns:sketch="http://www.bohemiancoding.com/sketch/ns">
    <!-- Generator: Sketch 3.3.3 (12081) - http://www.bohemiancoding.com/sketch -->
    <title>log-out</title>
    <desc>Created with Sketch.</desc>
    <defs></defs>
    <g id="Page-1" stroke="none" stroke-width="1" fill="none" fill-rule="evenodd" sketch:type="MSPage">
        <g id="375-retina-display-ready-icons" sketch:type="MSLayerGroup" transform="translate(-1086.000000, -950.000000)" fill="#FFFFFF">
            <path d="M1109.543,965.488 L1103.324,971.709 C1102.516,972.516 1101.246,972.554 1100.492,971.8 C1099.734,971.043 1099.773,969.774 1100.584,968.968 L1103.559,965.991 L1092.545,965.991 C1091.473,965.991 1090.604,965.121 1090.604,964.052 C1090.604,962.98 1091.471,962.112 1092.545,962.112 L1103.613,962.112 L1100.623,959.123 C1099.828,958.327 1099.795,957.068 1100.553,956.311 C1101.311,955.555 1102.57,955.585 1103.365,956.382 L1109.504,962.519 C1109.529,962.545 1109.549,962.576 1109.574,962.605 C1109.594,962.622 1109.617,962.635 1109.637,962.655 C1110.395,963.412 1110.354,964.68 1109.543,965.488 L1109.543,965.488 Z M1112.178,950.673 L1088.602,950.673 C1087.369,950.673 1086.371,951.671 1086.371,952.902 L1086.371,975.201 C1086.371,976.43 1087.369,977.429 1088.602,977.429 L1112.178,977.429 C1113.408,977.429 1114.408,976.43 1114.408,975.201 L1114.408,952.902 C1114.408,951.671 1113.408,950.673 1112.178,950.673 L1112.178,950.673 Z" id="log-out" sketch:type="MSShapeGroup"></path>
        </g>
    </g>
</svg>