<?xml version="1.0" encoding="utf-8"?>
<!-- Generator: Adobe Illustrator 17.0.0, SVG Export Plug-In . SVG Version: 6.00 Build 0)  -->
<!DOCTYPE svg PUBLIC "-//W3C//DTD SVG 1.1//EN" "http://www.w3.org/Graphics/SVG/1.1/DTD/svg11.dtd">
<svg version="1.1" id="Layer_1" xmlns="http://www.w3.org/2000/svg" xmlns:xlink="http://www.w3.org/1999/xlink" x="0px" y="0px"
	 width="60px" height="60px" viewBox="21.297 5.186 60 60" enable-background="new 21.297 5.186 60 60" xml:space="preserve">
<path id="petrol" fill="#FFFFFF" d="M77.821,38.861c-2.081-5.999-4.424-12.771-4.51-17.056h2.651c0-5.454-9.334-12.847-9.334-12.847
	l-1.333,1.939c2.666,2.727,5.333,7.5,5.333,10.909h0.016c0.081,4.741,2.506,11.759,4.664,17.967
	c1.711,4.917,3.321,9.561,3.321,11.777c0,4.267-2.495,6.819-6.667,6.819c-3.676,0-6.666-3.058-6.666-6.819v-15
	c0-10.142-3.625-12.273-6.666-12.273V10.64l0,0c0-3.011-2.391-5.454-5.334-5.454c-0.005,0-0.008,0-0.013,0H29.296
	c-2.944,0-5.333,2.444-5.333,5.454v51.819c-1.475,0-2.666,1.22-2.666,2.727h39.999c0-1.507-1.192-2.727-2.666-2.727V27.004
	c3.307,0,4,5.189,4,9.546v14.999c0,5.263,4.188,9.546,9.334,9.546c5.583,0,9.334-3.835,9.334-9.546
	C81.295,48.864,79.686,44.224,77.821,38.861z M29.296,10.64h23.999v16.364H29.296V10.64z"/>
</svg>
