<?xml version="1.0" encoding="utf-8"?>
<!-- Generator: Adobe Illustrator 17.0.0, SVG Export Plug-In . SVG Version: 6.00 Build 0)  -->
<!DOCTYPE svg PUBLIC "-//W3C//DTD SVG 1.1//EN" "http://www.w3.org/Graphics/SVG/1.1/DTD/svg11.dtd">
<svg version="1.1" id="Layer_1" xmlns="http://www.w3.org/2000/svg" xmlns:xlink="http://www.w3.org/1999/xlink" x="0px" y="0px"
	 width="60px" height="60px" viewBox="0 0 60 60" enable-background="new 0 0 60 60" xml:space="preserve">
<g>
	<path fill="#FFFFFF" d="M36.4,23.85c0,0-10.322,3.162-12.301,5.141c-1.977,1.972-1.977,5.176,0,7.156
		c1.979,1.976,5.183,1.976,7.158,0C33.234,34.167,36.4,23.85,36.4,23.85z"/>
	<g>
		<path fill="#FFFFFF" d="M50.152,12.882l5.303,5.305L60,13.636c0,0-3.016-7.524-13.64-13.636l-4.547,4.547l5.305,5.301l0,0v0.004
			l-1.148,1.151c-4.874-4.178-11.191-6.714-18.114-6.714C12.47,4.289,0,16.757,0,32.146C0,47.529,12.47,60,27.856,60
			c15.386,0,27.858-12.471,27.858-27.854c0-6.926-2.54-13.243-6.712-18.114L50.152,12.882z M48.871,32.616
			c-0.003,0.021-0.005,0.045-0.005,0.073h0.398c-0.221,4.95-2.143,9.587-5.482,13.243l-0.25-0.25
			c-0.052,0.059-0.097,0.122-0.15,0.177l-3.801-3.799l-1.192,1.193l4.035,4.035c-3.663,3.34-8.293,5.263-13.251,5.486v-0.104
			c-0.134,0.011-0.259,0.024-0.396,0.031V47.07H27.26v5.705c-0.757-0.035-1.498-0.122-2.235-0.233
			c-4.256-0.557-8.205-2.393-11.412-5.322l4.041-4.039l-1.126-1.12l-3.876,3.875c-0.073-0.087-0.134-0.174-0.214-0.254l-0.181,0.184
			c-3.439-3.764-5.268-8.471-5.483-13.25h5.707v-1.847h-5.31c0-0.021,0.004-0.049,0.004-0.069H6.773
			c0.216-4.78,2.045-9.486,5.487-13.25l0.246,0.25c0.056-0.059,0.097-0.122,0.151-0.181l3.801,3.809l1.195-1.197l-4.038-4.035
			c3.658-3.343,8.299-5.263,13.249-5.482v0.104c0.129-0.01,0.264-0.028,0.395-0.035v5.632h1.519v-5.702
			c0.755,0.031,1.501,0.122,2.237,0.233c4.258,0.56,8.205,2.397,11.407,5.322l-4.032,4.032l1.124,1.127l3.868-3.875
			c0.076,0.083,0.139,0.174,0.21,0.257l0.19-0.188c3.34,3.66,5.262,8.293,5.482,13.247h-5.709v1.847H48.871z"/>
	</g>
</g>
</svg>
