<?xml version="1.0" encoding="utf-8"?>
<!-- Generator: Adobe Illustrator 17.0.0, SVG Export Plug-In . SVG Version: 6.00 Build 0)  -->
<!DOCTYPE svg PUBLIC "-//W3C//DTD SVG 1.1//EN" "http://www.w3.org/Graphics/SVG/1.1/DTD/svg11.dtd">
<svg version="1.1" id="Layer_1" xmlns="http://www.w3.org/2000/svg" xmlns:xlink="http://www.w3.org/1999/xlink" x="0px" y="0px"
	 width="60px" height="60px" viewBox="7.422 20 60 60" enable-background="new 7.422 20 60 60" xml:space="preserve">
<path fill="#FFFFFF" d="M59.833,80h7.589L53.936,65.028c2.589-0.305,4.728-1.199,6.43-2.668c1.712-1.468,2.568-3.211,2.568-5.222
	v-29.25c0-2.164-1.033-4.019-3.1-5.57C57.755,20.77,55.219,20,52.234,20H22.61c-3.006,0-5.532,0.77-7.599,2.317
	c-2.067,1.55-3.1,3.406-3.1,5.57v29.25c0,2.012,0.877,3.773,2.641,5.281c1.754,1.508,3.873,2.375,6.357,2.61L7.422,80h7.589
	l1.294-1.441h42.233L59.833,80z M55.324,59.743c-0.919,0.967-2.12,1.456-3.559,1.456c-1.347,0-2.484-0.489-3.414-1.456
	c-0.929-0.974-1.399-2.202-1.399-3.713c0-1.397,0.47-2.604,1.399-3.632c0.929-1.022,2.067-1.539,3.414-1.539
	c1.441,0,2.641,0.517,3.559,1.539c0.928,1.027,1.398,2.235,1.398,3.632C56.722,57.541,56.252,58.769,55.324,59.743z M18.424,29.694
	c0-1.407,0.47-2.566,1.399-3.475c0.919-0.905,2.108-1.356,3.559-1.356h28.069c1.451,0,2.662,0.453,3.643,1.356
	c0.992,0.91,1.483,2.068,1.483,3.475v12.175c0,1.413-0.491,2.571-1.483,3.475c-0.981,0.905-2.192,1.351-3.643,1.351H23.382
	c-1.451,0-2.641-0.447-3.559-1.351c-0.929-0.905-1.399-2.064-1.399-3.475V29.694z M19.51,59.743
	c-0.94-0.974-1.399-2.202-1.399-3.713c0-1.397,0.459-2.604,1.399-3.632c0.94-1.022,2.119-1.539,3.57-1.539
	c1.336,0,2.474,0.517,3.413,1.539c0.929,1.027,1.399,2.235,1.399,3.632c0,1.512-0.47,2.74-1.399,3.713
	c-0.94,0.967-2.077,1.456-3.413,1.456C21.628,61.199,20.449,60.71,19.51,59.743z M20.648,73.723l3.518-3.934h26.514l3.528,3.934
	H20.648z"/>
</svg>
